<svg width="24" height="30" viewBox="0 0 24 30" fill="none" xmlns="http://www.w3.org/2000/svg">
<path d="M13.4501 4.6499V0.399902H0.0500488V29.5999H13.4501V25.3499C10.7051 25.3499 8.07246 24.2594 6.13149 22.3184C4.19049 20.3774 3.10005 17.7449 3.10005 14.9999C3.10005 12.2549 4.19049 9.62228 6.13149 7.68135C8.07246 5.74035 10.7051 4.6499 13.4501 4.6499Z" fill="white"/>
<path d="M13.45 4.6499V25.3499C16.195 25.3499 18.8276 24.2594 20.7686 22.3184C22.7096 20.3774 23.8 17.7449 23.8 14.9999C23.8 12.2549 22.7096 9.62228 20.7686 7.68135C18.8276 5.74035 16.195 4.6499 13.45 4.6499Z" fill="white"/>
</svg>
