<svg width="27" height="28" viewBox="0 0 27 28" fill="none" xmlns="http://www.w3.org/2000/svg">
<path d="M20.419 12.371C20.04 12.7523 19.7498 13.2125 19.569 13.7187C19.3882 14.225 19.3213 14.7649 19.373 15.3L19.355 15.282C19.4082 15.9119 19.3232 16.5457 19.1061 17.1394C18.889 17.733 18.545 18.2721 18.0981 18.7191C17.6511 19.166 17.112 19.5101 16.5183 19.7271C15.9247 19.9442 15.2908 20.0292 14.661 19.976L14.679 19.994C13.9256 19.9239 13.1689 20.0878 12.512 20.4635C11.8552 20.8392 11.3302 21.4083 11.0087 22.0933C10.6872 22.7783 10.5847 23.5457 10.7153 24.2911C10.846 25.0364 11.2033 25.7233 11.7386 26.2581C12.2739 26.7929 12.9611 27.1496 13.7065 27.2795C14.452 27.4095 15.2193 27.3063 15.904 26.9842C16.5887 26.662 17.1573 26.1366 17.5324 25.4794C17.9075 24.8222 18.0708 24.0654 18 23.312L18.019 23.33C17.9658 22.7002 18.0507 22.0663 18.2678 21.4726C18.4849 20.879 18.829 20.3399 19.2759 19.8929C19.7229 19.446 20.262 19.1019 20.8556 18.8849C21.4493 18.6678 22.0831 18.5828 22.713 18.636L22.694 18.618C23.3094 18.6733 23.9289 18.5724 24.495 18.3246C25.061 18.0768 25.5554 17.6901 25.9322 17.2004C26.309 16.7107 26.5562 16.1337 26.6506 15.5231C26.7451 14.9124 26.6839 14.2878 26.4727 13.707C26.2615 13.1263 25.9071 12.6083 25.4424 12.201C24.9777 11.7937 24.4177 11.5103 23.8143 11.3771C23.2109 11.2439 22.5836 11.2651 21.9906 11.4388C21.3976 11.6126 20.8581 11.9332 20.422 12.371H20.419Z" fill="white"/>
<path d="M13.042 17.636L13.023 17.618C13.5583 17.6719 14.0989 17.6062 14.6058 17.4256C15.1126 17.245 15.573 16.9541 15.9536 16.5738C16.3341 16.1935 16.6255 15.7333 16.8064 15.2266C16.9874 14.7199 17.0535 14.1794 17 13.644L17.019 13.662C16.9658 13.0321 17.0508 12.3983 17.2678 11.8046C17.4849 11.211 17.829 10.6719 18.2759 10.2249C18.7229 9.778 19.262 9.4339 19.8556 9.2169C20.4493 8.99976 21.0831 8.91483 21.713 8.968L21.694 8.95C22.4475 9.0208 23.2044 8.85736 23.8616 8.4821C24.5189 8.10684 25.0443 7.53797 25.3663 6.8531C25.6883 6.16824 25.7912 5.40071 25.661 4.6552C25.5308 3.90969 25.1738 3.22251 24.6386 2.68737C24.1035 2.15224 23.4163 1.7952 22.6708 1.66498C21.9253 1.53475 21.1578 1.63766 20.4729 1.95968C19.788 2.28169 19.2192 2.80714 18.8439 3.46435C18.4686 4.12155 18.3052 4.87852 18.376 5.632L18.358 5.613C18.4113 6.24289 18.3265 6.87683 18.1095 7.47055C17.8925 8.06427 17.5484 8.60346 17.1015 9.0505C16.6545 9.4974 16.1153 9.8415 15.5216 10.0585C14.9278 10.2755 14.2939 10.3603 13.664 10.307L13.682 10.326C13.1467 10.2721 12.606 10.3378 12.0992 10.5184C11.5924 10.6989 11.132 10.9899 10.7514 11.3702C10.3708 11.7505 10.0795 12.2107 9.8985 12.7174C9.7176 13.2241 9.6515 13.7646 9.705 14.3L9.687 14.282C9.74 14.9118 9.6549 15.5456 9.4378 16.1392C9.2206 16.7327 8.8766 17.2718 8.4297 17.7187C7.98273 18.1656 7.44369 18.5096 6.85013 18.7268C6.25657 18.9439 5.62278 19.029 4.99297 18.976L5.01097 18.994C4.25749 18.9232 3.50052 19.0866 2.84331 19.4619C2.18611 19.8372 1.66066 20.406 1.33865 21.0909C1.01663 21.7758 0.913711 22.5433 1.04394 23.2888C1.17417 24.0343 1.53121 24.7215 2.06634 25.2566C2.60148 25.7918 3.28866 26.1488 4.03417 26.279C4.77968 26.4092 5.54721 26.3063 6.23208 25.9843C6.91694 25.6623 7.48581 25.1369 7.86107 24.4797C8.2364 23.8224 8.3998 23.0655 8.329 22.312L8.348 22.33C8.2948 21.7001 8.3798 21.0663 8.5969 20.4726C8.8139 19.879 9.158 19.3399 9.6049 18.8929C10.0519 18.446 10.591 18.1019 11.1846 17.8849C11.7783 17.6678 12.4121 17.5828 13.042 17.636Z" fill="white"/>
<path d="M6.34003 15.6289C6.71905 15.2477 7.00923 14.7875 7.18987 14.2812C7.37051 13.7749 7.43715 13.2349 7.38503 12.6999L7.40402 12.7179C7.35082 12.0879 7.43578 11.4538 7.65299 10.86C7.8702 10.2662 8.2144 9.727 8.6616 9.28C9.1088 8.83306 9.6481 8.48907 10.242 8.27212C10.8359 8.05516 11.47 7.97046 12.1 8.02394L12.081 8.00594C12.8342 8.07651 13.5909 7.91302 14.2478 7.53778C14.9047 7.16255 15.4298 6.59382 15.7517 5.90917C16.0735 5.22451 16.1763 4.45726 16.0461 3.71203C15.9159 2.9668 15.5589 2.27988 15.024 1.74494C14.4891 1.21 13.8021 0.853079 13.0569 0.722859C12.3117 0.592629 11.5444 0.695449 10.8598 1.01727C10.1751 1.33909 9.6064 1.86426 9.2312 2.52116C8.8559 3.17806 8.6924 3.93472 8.763 4.68794L8.745 4.66994C8.7982 5.29979 8.7132 5.93366 8.4961 6.5273C8.279 7.12094 7.93505 7.66005 7.48809 8.10701C7.04114 8.55397 6.50202 8.898 5.90838 9.115C5.31474 9.3321 4.68088 9.4171 4.05103 9.3639L4.06903 9.3819C3.4536 9.3267 2.83419 9.4278 2.26821 9.6757C1.70223 9.9236 1.20798 10.3104 0.831268 10.8002C0.454558 11.2899 0.207578 11.8669 0.113198 12.4775C0.0188283 13.0882 0.0801183 13.7128 0.291388 14.2934C0.502658 14.8741 0.857088 15.392 1.32182 15.7992C1.78655 16.2065 2.34655 16.4898 2.94993 16.623C3.5533 16.7561 4.18053 16.7348 4.7735 16.5611C5.36646 16.3873 5.90596 16.0667 6.34202 15.6289H6.34003Z" fill="white"/>
</svg>
