<svg width="40" height="41" viewBox="0 0 40 41" fill="none" xmlns="http://www.w3.org/2000/svg">
<path d="M0 20C0 8.95431 8.95431 0 20 0V0C31.0457 0 40 8.95431 40 20V21C40 32.0457 31.0457 41 20 41V41C8.95431 41 0 32.0457 0 21V20Z" fill="#DDF0A7"/>
<path d="M28.9737 15.7174C28.5093 16.3369 27.9479 16.8773 27.3112 17.3178C27.3112 17.4796 27.3112 17.6414 27.3112 17.8123C27.3163 20.7511 26.1424 23.5691 24.0527 25.6345C21.9629 27.6999 19.1321 28.8399 16.1949 28.7989C14.4968 28.8046 12.8205 28.4169 11.2973 27.6661C11.2151 27.6302 11.1622 27.549 11.1625 27.4593V27.3604C11.1625 27.2313 11.2671 27.1267 11.3961 27.1267C13.0653 27.0716 14.6749 26.4929 15.9972 25.4724C14.4864 25.4419 13.127 24.5469 12.5015 23.1707C12.4699 23.0956 12.4797 23.0093 12.5274 22.9432C12.5751 22.8771 12.6539 22.8407 12.7351 22.8471C13.1943 22.8932 13.658 22.8505 14.1011 22.7212C12.4332 22.375 11.1801 20.9904 11.0007 19.2957C10.9943 19.2144 11.0308 19.1357 11.0969 19.0879C11.1629 19.0402 11.2491 19.0303 11.3242 19.062C11.7718 19.2595 12.2549 19.3635 12.7441 19.3676C11.2827 18.4085 10.6515 16.5841 11.2074 14.9262C11.2648 14.7651 11.4027 14.6461 11.5704 14.6129C11.738 14.5798 11.9108 14.6373 12.0252 14.7644C13.9972 16.8633 16.7069 18.114 19.5828 18.2528C19.5092 17.9589 19.473 17.6568 19.475 17.3537C19.5019 15.7647 20.4851 14.3492 21.9643 13.7699C23.4434 13.1905 25.1258 13.562 26.2239 14.7104C26.9723 14.5679 27.6959 14.3165 28.3716 13.9642C28.4211 13.9333 28.4839 13.9333 28.5334 13.9642C28.5643 14.0137 28.5643 14.0765 28.5334 14.126C28.2061 14.8755 27.6532 15.5041 26.9518 15.9242C27.566 15.853 28.1694 15.7081 28.7491 15.4926C28.7979 15.4594 28.862 15.4594 28.9108 15.4926C28.9517 15.5113 28.9823 15.5471 28.9944 15.5904C29.0065 15.6337 28.9989 15.6802 28.9737 15.7174Z" fill="#162E3C"/>
</svg>
