<svg width="40" height="41" viewBox="0 0 40 41" fill="none" xmlns="http://www.w3.org/2000/svg">
<path d="M0 20C0 8.95431 8.95431 0 20 0V0C31.0457 0 40 8.95431 40 20V21C40 32.0457 31.0457 41 20 41V41C8.95431 41 0 32.0457 0 21V20Z" fill="#DDF0A7"/>
<path d="M24.5 15H21.5C20.9477 15 20.5 15.4477 20.5 16V19H24.5C24.6137 18.9975 24.7216 19.0504 24.7892 19.1419C24.8568 19.2334 24.8758 19.352 24.84 19.46L24.1 21.66C24.0318 21.8619 23.8431 21.9984 23.63 22H20.5V29.5C20.5 29.7761 20.2761 30 20 30H17.5C17.2239 30 17 29.7761 17 29.5V22H15.5C15.2239 22 15 21.7761 15 21.5V19.5C15 19.2239 15.2239 19 15.5 19H17V16C17 13.7909 18.7909 12 21 12H24.5C24.7761 12 25 12.2239 25 12.5V14.5C25 14.7761 24.7761 15 24.5 15Z" fill="#162E3C"/>
</svg>
