<svg width="40" height="41" viewBox="0 0 40 41" fill="none" xmlns="http://www.w3.org/2000/svg">
<path d="M0 20C0 8.95431 8.95431 0 20 0V0C31.0457 0 40 8.95431 40 20V21C40 32.0457 31.0457 41 20 41V41C8.95431 41 0 32.0457 0 21V20Z" fill="#DDF0A7"/>
<path fill-rule="evenodd" clip-rule="evenodd" d="M13 12H27C28.1046 12 29 12.8954 29 14V28C29 29.1046 28.1046 30 27 30H13C11.8954 30 11 29.1046 11 28V14C11 12.8954 11.8954 12 13 12ZM16 27C16.2761 27 16.5 26.7761 16.5 26.5V19.5C16.5 19.2239 16.2761 19 16 19H14.5C14.2239 19 14 19.2239 14 19.5V26.5C14 26.7761 14.2239 27 14.5 27H16ZM15.25 18C14.4216 18 13.75 17.3284 13.75 16.5C13.75 15.6716 14.4216 15 15.25 15C16.0784 15 16.75 15.6716 16.75 16.5C16.75 17.3284 16.0784 18 15.25 18ZM25.5 27C25.7761 27 26 26.7761 26 26.5V21.9C26.0325 20.3108 24.8576 18.9545 23.28 18.76C22.177 18.6593 21.1083 19.1744 20.5 20.1V19.5C20.5 19.2239 20.2761 19 20 19H18.5C18.2239 19 18 19.2239 18 19.5V26.5C18 26.7761 18.2239 27 18.5 27H20C20.2761 27 20.5 26.7761 20.5 26.5V22.75C20.5 21.9216 21.1716 21.25 22 21.25C22.8284 21.25 23.5 21.9216 23.5 22.75V26.5C23.5 26.7761 23.7239 27 24 27H25.5Z" fill="#162E3C"/>
</svg>
