<svg width="170" height="240" viewBox="0 0 170 240" fill="none" xmlns="http://www.w3.org/2000/svg">
<g clip-path="url(#clip0_15_71)">
<path fill-rule="evenodd" clip-rule="evenodd" d="M146.348 0.264511C115.769 1.82148 92.5956 24.3119 70.5371 45.4527C47.8538 67.1923 21.1373 89.5878 20.4489 120.926C19.7521 152.638 43.9112 178.074 67.1468 199.775C89.4476 220.604 115.849 236.312 146.348 238.515C179.303 240.895 215.133 235.913 237.938 212.109C260.415 188.648 260.416 153.318 259.007 120.926C257.676 90.3401 251.269 59.7403 230.332 37.3165C208.659 14.1051 178.138 -1.35413 146.348 0.264511Z" fill="#1F3847"/>
<path d="M77.1099 70.4767C72.3781 66.3313 68.8766 59.3593 67.5517 53.8006C65.7536 45.8865 76.5421 35.1461 85.3433 54.0833C92.0624 68.5924 99.2548 70.3825 105.028 58.9825C110.801 47.4883 121.779 47.7708 118.277 59.2651C114.018 73.5857 88.6555 80.4635 77.1099 70.4767Z" fill="#DDF0A7"/>
<path d="M180.831 76.0359C165.406 87.5301 146.763 79.4276 144.113 60.0193C142.409 47.6772 156.605 47.7714 161.715 60.1136C168.15 75.659 174.018 74.2458 177.235 56.345C178.276 50.4094 184.617 47.2061 188.213 50.7863C193.04 55.5912 188.876 70.0061 180.831 76.0359Z" fill="#DDF0A7"/>
<path d="M139.001 114.758C127.266 126.911 101.999 119.091 97.7406 102.039C95.3747 92.7117 110.137 93.6539 117.424 103.263C121.21 108.351 124.049 110.706 123.954 110.612C124.995 111.554 126.699 111.46 127.55 110.33C128.402 109.199 130.2 105.713 131.43 102.51C134.175 95.6324 141.651 91.3927 145.058 94.7844C147.519 97.234 143.733 109.858 139.001 114.758Z" fill="#DDF0A7"/>
<path d="M142.882 144.341C138.435 135.579 144.681 128.984 153.198 133.601C155.28 134.731 157.835 137.652 160.201 141.515C168.623 155.176 170.516 155.554 175.721 144.531C178.466 138.689 179.79 137.465 183.671 137.465C191.43 137.465 187.74 152.916 178.56 158.663C165.217 167.142 151.778 161.771 142.882 144.341Z" fill="#DDF0A7"/>
<path d="M120.548 190.224C126.416 189.658 127.835 190.318 133.608 196.348C141.084 204.168 147.614 199.268 148.845 184.853C149.223 180.143 152.819 179.389 155.942 183.252C167.866 198.326 140.99 219.052 124.05 207.841C115.438 202.094 113.167 190.883 120.548 190.224Z" fill="#DDF0A7"/>
<path d="M13.2307 41.6473C14.7449 43.3432 17.4894 47.206 19.2874 50.4093C26.953 64.1647 29.2242 64.0704 37.7415 49.9382C45.3123 37.3134 54.0189 39.1035 49.3817 52.1994C43.325 69.3465 19.3821 75.7521 8.30963 63.2215C-7.11603 45.7918 5.09202 32.6969 13.2307 41.6473Z" fill="#DDF0A7"/>
<path d="M42.8517 93.2766C44.7444 94.9725 47.6781 98.27 49.2869 100.625C57.8042 113.156 60.8325 112.779 67.0785 98.6468C70.9586 89.7906 82.3149 86.7758 79.949 100.154C75.5011 124.65 34.3345 124.462 29.8866 97.2336C28.751 90.3559 36.7003 87.8121 42.8517 93.2766Z" fill="#DDF0A7"/>
<path d="M76.069 136.144C77.5832 136.898 82.1257 140.761 86.0058 144.53C98.4031 156.589 103.798 156.589 108.719 144.058C110.99 138.311 111.842 137.558 115.533 137.558C123.104 137.558 121.116 151.69 112.788 157.154C95.7533 168.272 65.0912 156.966 65.0912 139.536C65.1859 135.768 71.5265 133.789 76.069 136.144Z" fill="#DDF0A7"/>
</g>
<defs>
<clipPath id="clip0_15_71">
<rect width="170" height="240" fill="white"/>
</clipPath>
</defs>
</svg>
